. 
  
http://www.torrentday.com/        :     The Hottest Private Tracker On The Net!!!
 
http://www.torrentday.com          :     Once & For all ;)


               www . TorrentDay . Com 

(((((((((((((= Enjoy No RAR releases =))))))))))))))))))))


...................................NFO:....................................

.[color=red][size=4][b]Uncertainty.2009.DVDRiP.XViD.AC3.NiTR0[/b][/size][/color]                     
	

	Runtime______ 101 min
	Source_______ Retail Region 1 DVD9                                
	IMDB_________ http://www.imdb.com/title/tt1086216/
	Genre: Drama | Romance                
	Plot: A young couple facing a life-changing decision, Bobby (Joseph Gordon-Levitt) and Kate (Lynn Collins), stand on the Brooklyn Bridge, toss a coin and let the outcome decide their holiday plans.
	The action unfolds in intercutting scenes of both possibilities. This creative cinematic puzzle from filmmakers Scott McGehee and David Siegel (Bee Season) reveals an intricate thriller as well as a tense relationship drama.

[color=red][size=3][b]General[/b][/size][/color]
Complete name                    : Uncertainty.2009.DVDRiP.XViD.AC3.NiTR0.avi
Format                           : AVI
Format/Info                      : Audio Video Interleave
Format profile                   : OpenDML
Format settings                  : rec
File size                        : 1.37 GiB
Duration                         : 1h 45mn
Overall bit rate                 : 1 859 Kbps

[color=red][size=3][b]Video[/b][/size][/color]
Format                           : MPEG-4 Visual
Format profile                   : Advanced Simple@L5
Format settings, BVOP            : 2
Format settings, QPel            : No
Format settings, GMC             : No warppoints
Format settings, Matrix          : Default (H.263)
Muxing mode                      : Packed bitstream
Codec ID                         : XVID
Duration                         : 1h 45mn
Bit rate                         : 1 405 Kbps
Width                            : 720 pixels
Height                           : 304 pixels
Display aspect ratio             : 2.35:1
Frame rate                       : 23.976 fps
Bit depth                        : 8 bits
Scan type                        : Progressive
Stream size                      : 1.03 GiB (76%)

[color=red][size=3][b]Audio[/b][/size][/color]
Format                           : AC-3
Format/Info                      : Audio Coding 3
Mode extension                   : CM (complete main)
Duration                         : 1h 45mn
Bit rate mode                    : Constant
Bit rate                         : 448 Kbps
Channel(s)                       : 6 channels
Channel positions                : Front: L C R, Side: L R, LFE
Sampling rate                    : 48.0 KHz
Stream size                      : 337 MiB (24%)
Alignment                        : Aligned on interleaves
Interleave, duration             : 64 ms (1.53 video frames)
Interleave, preload duration     : 192 ms

[color=red][size=3][b]Screens:[/b][/size][/color]
[img][/img]
[img][/img]
[img][/img]
[img][/img]